<?xml version="1.0" encoding="UTF-8"?>
<svg id="Camada_1" data-name="Camada 1" xmlns="http://www.w3.org/2000/svg" xmlns:xlink="http://www.w3.org/1999/xlink" viewBox="0 0 428.21 388.28">
  <defs>
    <style>
      .cls-1 {
        fill: none;
      }

      .cls-2 {
        clip-path: url(#clippath);
      }
    </style>
    <clipPath id="clippath">
      <rect class="cls-1" width="428.21" height="388.28"/>
    </clipPath>
  </defs>
  <g class="cls-2">
    <path d="M362.4,12.68C322.69,4.55,269.98.02,213.93.02S105.17,4.55,65.46,12.68C21.99,21.58,0,33.56,0,48.11,0,53.07,2.48,57.69,7.44,61.97l173.97,205.89v79.5l65.04,40.9v-120.4L420.42,61.97c4.96-4.28,7.45-8.9,7.45-13.78,0-14.63-21.99-26.61-65.46-35.51ZM235.07,264.09v104.14l-42.36-26.61v-77.53L33.03,75.06c8.98,3.08,19.77,5.91,32.43,8.56.77.17,4.54.86,5.56,1.11h.17c11.64,2.22,24.21,4.11,37.65,5.73.17,0,.26,0,.43.08,1.03.09,10.35,1.11,10.7,1.2,24.21,2.48,50.57,4.02,77.95,4.45.26,0,10.7.08,11.13.08h14.89c.43,0,5.82-.08,6.08-.08,27.47-.43,53.74-1.89,77.95-4.45.34,0,9.67-1.11,10.7-1.2.17,0,.26,0,.43-.08,13.44-1.63,26.02-3.51,37.65-5.73h.17c1.03-.17,4.71-.94,5.56-1.11,12.58-2.57,23.45-5.47,32.43-8.56l-159.85,189.03ZM412.46,54.44c-10.69,8.9-39.7,17.89-82.66,23.88-.26,0-4.45.6-5.48.77h-.26c-31.15,4.02-67.09,6.33-104.74,6.5h-10.87c-37.65-.17-73.59-2.48-104.74-6.5h-.26c-1.03-.17-5.22-.69-5.48-.77-42.96-5.99-71.96-15.06-82.58-23.96v.09c-2.74-2.31-4.02-4.45-4.02-6.25,0-6.24,14.8-16.52,56.48-25.07,38.93-8.04,90.79-12.41,146.07-12.41s107.14,4.36,146.07,12.41c41.76,8.56,56.56,18.83,56.56,24.99-.08,1.8-1.28,3.94-4.11,6.33Z"/>
  </g>
</svg>